# xmcd
#
# Track frame offsets: 
#        150
#        26224
#        47413
#        65745
#        93361
#        117347
#        136347
#
# Disc length: 2209 seconds
#
# Revision: 0
# Processed by: cddbd v1.5.2PL0 Copyright (c) Steve Scherf et al.
# Submitted via: ExactAudioCopy v0.99pb5
#
DISCID=5e089f07
DTITLE=Ponytail - Do Whatever You Want All The Time
DYEAR=2011
DGENRE=Indie
TTITLE0=Easy Peasy
TTITLE1=Flabbermouse
TTITLE2=Honey Touches
TTITLE3=Beyondersville/Flight Of Fancy
TTITLE4=AwayWay
TTITLE5=Tush
TTITLE6=Music Tunes
EXTD=
EXTT0=
EXTT1=
EXTT2=
EXTT3=
EXTT4=
EXTT5=
EXTT6=
PLAYORDER=
